HIERARCHY
ROOT Hips
{
	OFFSET -14.64140 90.27770 -84.91600
	CHANNELS 6 Xposition Yposition Zposition Zrotation Xrotation Yrotation
	JOINT Spine
	{
		OFFSET 0.00000 13.20850 -1.60436
		CHANNELS 3 Zrotation Xrotation Yrotation
		JOINT Spine1
		{
			OFFSET 0.00000 8.61716 0.00000
			CHANNELS 3 Zrotation Xrotation Yrotation
			JOINT Spine2
			{
				OFFSET 0.00000 8.61717 0.00000
				CHANNELS 3 Zrotation Xrotation Yrotation
				JOINT Spine3
				{
					OFFSET 0.00000 8.61717 0.00000
					CHANNELS 3 Zrotation Xrotation Yrotation
					JOINT Neck
					{
						OFFSET 0.00000 11.07920 1.10792
						CHANNELS 3 Zrotation Xrotation Yrotation
						JOINT Neck1
						{
							OFFSET 0.00000 7.08032 0.00000
							CHANNELS 3 Zrotation Xrotation Yrotation
							JOINT Head
							{
								OFFSET 0.00000 7.08031 0.00000
								CHANNELS 3 Zrotation Xrotation Yrotation
								End site
								{
									OFFSET 0.00000 0.00000 0.00000
								}
							}
						}
					}
					JOINT RightShoulder
					{
						OFFSET -0.01000 7.91373 5.19711
						CHANNELS 3 Zrotation Xrotation Yrotation
						JOINT RightArm
						{
							OFFSET -18.41580 0.00000 0.00000
							CHANNELS 3 Zrotation Xrotation Yrotation
							JOINT RightForeArm
							{
								OFFSET -29.11090 0.00000 0.00000
								CHANNELS 3 Zrotation Xrotation Yrotation
								JOINT RightHand
								{
									OFFSET -24.65040 0.00000 0.00000
									CHANNELS 3 Zrotation Xrotation Yrotation
									JOINT RightHandThumb1
									{
										OFFSET -5.35114 -0.85590 3.97906
										CHANNELS 3 Zrotation Xrotation Yrotation
										JOINT RightHandThumb2
										{
											OFFSET -4.52789 0.00000 0.00000
											CHANNELS 3 Zrotation Xrotation Yrotation
											JOINT RightHandThumb3
											{
												OFFSET -2.46976 0.00000 0.00000
												CHANNELS 3 Zrotation Xrotation Yrotation
												End site
												{
													OFFSET 0.00000 0.00000 0.00000
												}
											}
										}
									}
									JOINT RightHandIndex1
									{
										OFFSET -14.26970 0.00000 2.88139
										CHANNELS 3 Zrotation Xrotation Yrotation
										JOINT RightHandIndex2
										{
											OFFSET -5.48836 0.00000 0.00000
											CHANNELS 3 Zrotation Xrotation Yrotation
											JOINT RightHandIndex3
											{
												OFFSET -3.01859 0.00000 0.00000
												CHANNELS 3 Zrotation Xrotation Yrotation
												End site
												{
													OFFSET 0.00000 0.00000 0.00000
												}
											}
										}
									}
									JOINT RightHandMiddle1
									{
										OFFSET -14.26970 0.00000 -0.09147
										CHANNELS 3 Zrotation Xrotation Yrotation
										JOINT RightHandMiddle2
										{
											OFFSET -6.17441 0.00000 0.00000
											CHANNELS 3 Zrotation Xrotation Yrotation
											JOINT RightHandMiddle3
											{
												OFFSET -3.56743 0.00000 0.00000
												CHANNELS 3 Zrotation Xrotation Yrotation
												End site
												{
													OFFSET 0.00000 0.00000 0.00000
												}
											}
										}
									}
									JOINT RightHandRing1
									{
										OFFSET -12.69180 0.00000 -3.06433
										CHANNELS 3 Zrotation Xrotation Yrotation
										JOINT RightHandRing2
										{
											OFFSET -5.62556 0.00000 0.00000
											CHANNELS 3 Zrotation Xrotation Yrotation
											JOINT RightHandRing3
											{
												OFFSET -3.56744 0.00000 0.00000
												CHANNELS 3 Zrotation Xrotation Yrotation
												End site
												{
													OFFSET 0.00000 0.00000 0.00000
												}
											}
										}
									}
									JOINT RightHandPinky1
									{
										OFFSET -11.11390 0.00000 -6.03719
										CHANNELS 3 Zrotation Xrotation Yrotation
										JOINT RightHandPinky2
										{
											OFFSET -4.52789 0.00000 0.00000
											CHANNELS 3 Zrotation Xrotation Yrotation
											JOINT RightHandPinky3
											{
												OFFSET -2.46976 0.00000 0.00000
												CHANNELS 3 Zrotation Xrotation Yrotation
												End site
												{
													OFFSET 0.00000 0.00000 0.00000
												}
											}
										}
									}
								}
							}
						}
					}
					JOINT LeftShoulder
					{
						OFFSET 0.01000 7.91373 5.19711
						CHANNELS 3 Zrotation Xrotation Yrotation
						JOINT LeftArm
						{
							OFFSET 18.41580 0.00000 0.00000
							CHANNELS 3 Zrotation Xrotation Yrotation
							JOINT LeftForeArm
							{
								OFFSET 29.11090 0.00000 0.00000
								CHANNELS 3 Zrotation Xrotation Yrotation
								JOINT LeftHand
								{
									OFFSET 24.65040 0.00000 0.00000
									CHANNELS 3 Zrotation Xrotation Yrotation
									JOINT LeftHandThumb1
									{
										OFFSET 5.35114 -0.85590 3.97906
										CHANNELS 3 Zrotation Xrotation Yrotation
										JOINT LeftHandThumb2
										{
											OFFSET 4.52789 0.00000 0.00000
											CHANNELS 3 Zrotation Xrotation Yrotation
											JOINT LeftHandThumb3
											{
												OFFSET 2.46977 0.00000 0.00000
												CHANNELS 3 Zrotation Xrotation Yrotation
												End site
												{
													OFFSET 0.00000 0.00000 0.00000
												}
											}
										}
									}
									JOINT LeftHandIndex1
									{
										OFFSET 14.26970 0.00000 2.88139
										CHANNELS 3 Zrotation Xrotation Yrotation
										JOINT LeftHandIndex2
										{
											OFFSET 5.48836 0.00000 0.00000
											CHANNELS 3 Zrotation Xrotation Yrotation
											JOINT LeftHandIndex3
											{
												OFFSET 3.01859 0.00000 0.00000
												CHANNELS 3 Zrotation Xrotation Yrotation
												End site
												{
													OFFSET 0.00000 0.00000 0.00000
												}
											}
										}
									}
									JOINT LeftHandMiddle1
									{
										OFFSET 14.26970 0.00000 -0.09147
										CHANNELS 3 Zrotation Xrotation Yrotation
										JOINT LeftHandMiddle2
										{
											OFFSET 6.17440 0.00000 0.00000
											CHANNELS 3 Zrotation Xrotation Yrotation
											JOINT LeftHandMiddle3
											{
												OFFSET 3.56744 0.00000 0.00000
												CHANNELS 3 Zrotation Xrotation Yrotation
												End site
												{
													OFFSET 0.00000 0.00000 0.00000
												}
											}
										}
									}
									JOINT LeftHandRing1
									{
										OFFSET 12.69180 0.00000 -3.06433
										CHANNELS 3 Zrotation Xrotation Yrotation
										JOINT LeftHandRing2
										{
											OFFSET 5.62556 0.00000 0.00000
											CHANNELS 3 Zrotation Xrotation Yrotation
											JOINT LeftHandRing3
											{
												OFFSET 3.56744 0.00000 0.00000
												CHANNELS 3 Zrotation Xrotation Yrotation
												End site
												{
													OFFSET 0.00000 0.00000 0.00000
												}
											}
										}
									}
									JOINT LeftHandPinky1
									{
										OFFSET 11.11390 0.00000 -6.03719
										CHANNELS 3 Zrotation Xrotation Yrotation
										JOINT LeftHandPinky2
										{
											OFFSET 4.52789 0.00000 0.00000
											CHANNELS 3 Zrotation Xrotation Yrotation
											JOINT LeftHandPinky3
											{
												OFFSET 2.46976 0.00000 0.00000
												CHANNELS 3 Zrotation Xrotation Yrotation
												End site
												{
													OFFSET 0.00000 0.00000 0.00000
												}
											}
										}
									}
								}
							}
						}
					}
					JOINT pCube4
					{
						OFFSET 0.00000 10.91090 1.10792
						CHANNELS 3 Zrotation Xrotation Yrotation
						End site
						{
							OFFSET 0.00000 0.00000 0.00000
						}
					}
				}
			}
		}
	}
	JOINT RightUpLeg
	{
		OFFSET -9.98441 0.00000 0.00000
		CHANNELS 3 Zrotation Xrotation Yrotation
		JOINT RightLeg
		{
			OFFSET 0.00000 -42.11790 0.00000
			CHANNELS 3 Zrotation Xrotation Yrotation
			JOINT RightFoot
			{
				OFFSET 0.00000 -45.00020 -0.00001
				CHANNELS 3 Zrotation Xrotation Yrotation
				JOINT RightForeFoot
				{
					OFFSET 0.00000 -3.74820 0.00000
					CHANNELS 3 Zrotation Xrotation Yrotation
					JOINT RightToeBase
					{
						OFFSET 0.00000 0.06325 14.43120
						CHANNELS 3 Zrotation Xrotation Yrotation
						End site
						{
							OFFSET 0.00000 0.00000 0.00000
						}
					}
				}
			}
		}
	}
	JOINT LeftUpLeg
	{
		OFFSET 9.98441 0.00000 0.00000
		CHANNELS 3 Zrotation Xrotation Yrotation
		JOINT LeftLeg
		{
			OFFSET 0.00000 -42.11800 0.00000
			CHANNELS 3 Zrotation Xrotation Yrotation
			JOINT LeftFoot
			{
				OFFSET 0.00000 -45.00070 0.00000
				CHANNELS 3 Zrotation Xrotation Yrotation
				JOINT LeftForeFoot
				{
					OFFSET 0.00000 -3.74824 0.00000
					CHANNELS 3 Zrotation Xrotation Yrotation
					JOINT LeftToeBase
					{
						OFFSET 0.00000 0.06325 14.43110
						CHANNELS 3 Zrotation Xrotation Yrotation
						End site
						{
							OFFSET 0.00000 0.00000 0.00000
						}
					}
				}
			}
		}
	}
}
MOTION
Frames: 4
Frame Time: 0.050000
0.04821326478517 -0.011692838689043238 0.02010314958632873 -0.009440901983321912 0.014379461306016448 0.01117716175860993 2.067171099781111 1.205580680913836 -1.852285632671002 -0.9146358791755824 3.534570650936319 0.42523160115586145 -1.1874459149847074 -1.4910108487446119 0.2161909068720849 0.47131408677149256 -0.11648107920322054 -0.5214558516883405 1.8543602329236528 13.651144530969384 -5.187946805575409 0.41800952853126755 0.540774924963229 -12.395966488967229 2.0259132247377685 -14.951292877033248 -1.0034924386421715 -11.92757093797549 3.7178887124363897 -17.229540333342626 72.31718766757201 -14.972179899666935 22.83542785632959 15.111061862182043 2.1755672961722796 94.23478415702269 2.334627918667998 -0.03258913252969918 -0.23692703910761895 4.505651848523376 -0.17136800551002634 -1.6097699936600818 0.022272469822902548 0.005508803676039181 -56.23883624434952 -0.046576759803634835 0.02258449660670042 -56.2403915791747 -38.745000051552715 -0.006541429514223996 0.02685495411188354 0.0230120408525077 -0.020393234591553597 -0.010557135162617932 0.037810061645611445 0.03627559454704096 0.008571255457026672 -36.67849345369635 0.01724916875435843 -0.023703628386442185 -0.015820929548079794 -0.047169576390429985 0.039708499983883906 -0.0038138215023700802 -0.04033099663591214 0.018389273171889167 -19.782156880411083 -0.045180070763332386 0.014091259077160558 0.04138630884231656 0.01824902614372771 -0.025430418062193535 -0.024158057199740547 0.03265162532505425 0.04111078265559859 24.062825479565912 0.024401551183776977 -0.03942875936798511 28.90593389717495 -0.03799111349762647 -0.03424845649176336 28.875690938010326 -0.021713677642033788 0.013718040191481682 7.667470398936154 1.8848343657731788 13.302049888258457 -71.2734004696296 21.946510862333902 -11.413129980672247 -16.52092344798805 3.1238152081218296 -66.10087858689677 -11.908830514935692 -1.8507782446144945 0.6594135039901072 -0.4896186330059511 0.053571530703004105 -8.088876461239733 0.032887824222020454 0.023237958729328042 44.52520588231644 0.03193930524493428 -0.04521325732367224 44.52394608908421 12.424829176726977 0.01515369192997799 0.035247678009299954 -0.01591361948448564 0.006197732639656742 0.042595099286470935 -0.02702602434194963 -0.010360394874670711 0.004924327560775717 11.11085952674635 -0.034592865742447514 0.02085250043937023 0.032571032648871005 -0.04542339512225181 0.027131204034227384 -0.004648561514776032 -0.005653227657444326 -0.006156147109050742 4.77557634818092 -0.03684282872749058 -0.039231925684961845 -0.040936748613660166 0.01886253055780987 -0.02983949456342322 0.030352229844719053 -0.007885484272818523 -0.0038613041482834128 -5.576362431146894 0.010175509407573705 -0.02008065033033256 -6.6965927268118755 -0.0438893364995953 0.02276228395506991 -6.735112625392219 0.006936756551682404 -0.014770090441420742 0.008631849586035033 -0.011765004322708553 -0.021757116805107213 8.001117629621733 3.539431094495097 -19.218728254574945 0.039939307197238656 10.371649773249814 -0.0327967414049201 -5.604952114511104 -15.645105328708196 3.213599459846858 -0.0034778847518996295 -0.007943596285493643 -0.0057944223864955955 -0.045781621836673635 4.686380832098166 -0.03918979334518822 12.409863960202467 -8.211580439888456 6.924232966554759 0.034256777590698895 46.339166671941506 -0.020645730826819572 -4.305729267141775 -14.74829461176498 -3.8574842796531112 -0.00012638549469874558 -0.04375767022451044 0.012822298672931082 0.03117180015758433 -10.747698999627543 -0.03707102744977297 
0.027582112196044437 0.027940933747485755 -0.025189349500009447 -0.020100317794055453 -0.03120619101783036 -0.02225142845446102 2.354214142766331 1.1403307421405358 -1.8297724621576912 -0.8990539608274295 3.6069793627832794 0.36447955892764883 -1.1497353798593088 -1.5357294732255344 0.5142817702974747 0.46189893881822086 -0.11099287571202365 -0.4187526397773029 1.862593352166167 13.759143079987917 -5.337021651332229 0.3822967337680221 0.5502045951538707 -12.854793471372018 2.106764349896378 -14.89726677581971 -1.0155521341788898 -12.245580580829209 3.8610236274385072 -17.420459362127275 71.72238735165351 -14.812615371175694 23.737756257299235 12.550954018350621 1.8318124313646975 93.00834452025519 2.4002253942060445 -0.11012775282937921 -0.27661652420056987 4.570256781322361 -0.08872141322468871 -1.6105652867646025 -0.026707539336373702 0.022175683512448807 -56.249772028156364 0.04832562957875256 -0.02273783971033705 -56.2627690095168 -38.770213413322494 0.023573955406174348 0.034709398218754135 0.02461143709664188 0.014393238841995335 -0.049819898801345006 -0.04026278400675408 0.0035467660486731625 0.010863550717031106 -36.7280390626217 -0.0041984060740674475 -0.04461104718467256 -0.04138066395974627 0.03590723728261159 -0.031694922785023845 -0.012923573905090574 -0.029093753329643018 -0.01726886655365654 -19.80244450543521 0.005456435207442897 0.024535335712464516 -0.03893778759010012 -0.022589157128903418 -0.04422169138878525 0.005267047443119159 -0.003954602546472508 0.000585572635487667 24.03810307711837 -0.02015533509026345 0.01260868692424677 28.88670773989834 0.007015645278254108 0.014296754223703441 28.83067812290162 0.005197109885065825 -0.01517517304121688 7.542659148356005 1.880334798202997 13.4864333153213 -71.34040752122151 21.922923712202895 -10.454634880357546 -9.270987109585977 0.07056951403122937 -59.500029553725874 -12.378772557822991 -1.4349032017278875 0.7358294861066788 -0.48011483951843315 0.09571338217631632 -8.138919893579052 -0.008636438525989122 -0.0035066677622406593 44.55279371972084 0.04575764848024788 0.03316994810994558 44.60053789240709 12.490701347563807 -0.005067705091549919 -0.03487393533530128 -0.021718588278870576 0.04694363367358161 0.0005542491655296745 -0.010161008756508522 -0.0480864850557949 -0.028218745448235244 11.130038804427233 -0.020082285966563584 0.019779107465521528 -0.0028585831455153897 -0.03207616411077454 -0.0009271555816536698 0.017749384637949842 -0.0035093365137537805 -0.036848231677965734 4.723406153450068 0.015244005272169623 -0.01505789097927768 -0.041617208173257335 -0.04127005963567016 -0.043211981598362516 0.029521712399993023 -0.03827619769223629 0.033181744785182855 -5.6149043820594295 -0.006118915435517336 -0.04118474519105814 -6.70670723743081 -0.021158168919170252 -0.023538063141889342 -6.700168012387968 -0.008840284281327477 -0.0020139895444024796 0.026334189106278508 0.0003432835879962187 -0.027665785308522574 8.000614959658272 3.4725179735053264 -19.242985098147138 -0.0038529937590059795 10.373677009890642 -0.021074634995168717 -5.670724408637706 -15.697543441958983 3.1548170225110623 -0.045138274939531806 0.044203682916121305 0.013647196767955254 0.030817370021800374 4.695280157625173 -0.011106476976937393 12.475859711257877 -8.213616322273337 6.89274018742336 0.009307235355872464 46.403921930797594 0.007667117461657897 -4.298179300711211 -14.775559854052835 -3.7903633400569 -0.03167190777775995 0.006509404691272842 0.032350357616730975 0.04721023534443131 -10.752227708495607 0.004449568238054362 
-0.011148881072253427 0.01261993643993058 0.002593331732555479 0.02931546771134276 0.005960785496245774 0.015140698516522073 2.744115575857368 1.223884621140654 -1.9881982535142149 -0.8991757002025311 3.5853050099103383 0.3662239346181915 -1.1594259832848053 -1.4820411528454078 0.8187805129639167 0.46498294918020344 -0.18305835587168875 -0.433021213293316 2.0151552136343907 13.797699670180245 -5.469897020487611 0.2931791701866167 0.5108973050047018 -13.326999116425297 2.109363195774491 -15.008178767570776 -1.0917803629175127 -12.695459383043874 3.971862410181042 -17.697972586755203 71.4934043956943 -14.892880364488658 24.390299950260875 10.106369781322764 1.445736865542063 91.81074500571792 2.1639822870149694 -0.04505464724053251 -0.1799160539271969 4.543984776964714 -0.14001118189075695 -1.573619513349371 0.0007137006954609069 0.00038947192229986784 -56.27817863492697 -0.0030304399355311194 -0.04986225834103688 -56.24753695614717 -38.784754663623566 0.04417848850974665 -0.006880848268763643 0.010950829583423145 -0.017570178133023005 0.026167666072461092 -0.030065361024090118 -0.017283181436305868 0.011311385673564489 -36.68001250329662 -0.00466922085782409 -0.047831836927643055 0.03939644570912068 -0.04083201207254515 0.03285684567901622 -0.010694621612462415 -0.006989824919297483 0.012935014131188277 -19.747835928905367 0.01259693316409283 0.019975980668168188 0.03811906087179322 0.04125188297353142 -0.03179202291167368 0.024858159304048506 0.012833068291179887 0.022828440211038765 24.017447100911543 -0.0015605261446494597 0.046218765642034865 28.856811971495652 -0.008275089281246182 -0.042973193001515315 28.837327012748368 0.029394630371091357 0.031151164305170967 7.579794542225491 1.8884710674644754 13.769818792096412 -71.57117752336055 21.531619878509517 -9.552911021333987 -3.332675863432269 -2.846961972882201 -53.70058248401245 -12.883592496997553 -1.027736339904187 0.7622310440881821 -0.4807079424546755 0.05581102505760946 -8.0936250547008 0.04408676680279249 0.0038495113715712667 44.59672996295787 0.04380971875039184 -0.029914751218558265 44.56072858811352 12.497071870323417 -0.04201745501911317 -0.017853906438125813 0.03839936257582809 0.029419654845545214 0.045011114377736736 0.005169278580170706 -3.0992424291290874e-05 -0.008901907575289634 11.079819234332291 0.015308291266969967 -0.04009612929012564 0.00047782787003802926 -0.002202237727947768 -0.006876112566421246 -0.006231348228040636 -0.02820058060862069 0.019732387115101706 4.785147778314858 0.014040551062667259 -0.0328533393182372 -0.038232052547966015 -0.011031291097653483 -0.0002603200147779601 0.01642135956480886 -0.03838427656505362 -0.0462212544636773 -5.589340273621305 0.03460182017873911 -0.001129572214862793 -6.680527445801398 0.04016018012512157 0.047586581103231516 -6.67808043843967 0.04435293213164635 0.0379464847999454 -0.035180121096495334 -0.03788028565103386 -0.03816660758049482 8.029153293709753 3.512795507705741 -19.188224634406815 0.034545725895172096 10.437992767941171 0.02367212737613223 -5.636141105146029 -15.67666369389491 3.1938481622003536 -0.045479677684988735 -0.02391295871111777 -0.04619008665399564 0.026543575319086275 4.691114874916874 0.04516257470082969 12.462071377896201 -8.224242763715408 6.9066291949780485 0.01274146819621362 46.37395699946142 -0.007633994980372812 -4.325818029775663 -14.789004501170412 -3.8845278164817816 -0.014435728427318155 0.012634911845605952 -0.0352155691468983 0.01141463545637564 -10.708293054261645 -0.03723789421490275 
-0.03471822982521957 -0.0027168863421698393 0.017024052706728934 0.001171120358260202 0.035621565603100334 -0.0025508261639970234 3.2863726810891185 1.3193342586511008 -2.047109031226148 -0.8774966674856504 3.574310922967333 0.45354890718434643 -1.1232964460771495 -1.4888184154906003 1.1125700529898945 0.37015218889408086 -0.26125031306639995 -0.34247210578581994 1.9719648293439362 13.770369161824332 -5.611836410121553 0.34625876328700966 0.4791288945086002 -13.72432459950136 2.1799439849049302 -15.155185823542709 -1.1540107906938086 -13.13341482805125 4.0712300956307965 -17.904924710420115 71.7781605401676 -15.99547723764426 25.04474417595575 8.9234853738628 1.1919319246446543 90.87629373795956 1.9126609244209847 -0.07862707732342189 -0.13648812340980873 4.5551741494842535 -0.13212813942775653 -1.6400024163750153 0.014893382468168875 -0.0028613709698310486 -56.20945197502761 0.00627121902510215 -0.01089997289003111 -56.19843949137706 -38.72301977950711 0.02684205463719143 -0.002721964069420666 -0.0010934018839884663 -0.030201711111519303 -0.015015405404954486 0.01828199416199592 0.04263939408538263 0.0062265471988236735 -36.68738719514836 0.03140063073401008 -0.021711769966604132 -0.044042305518803414 -0.040281635393832685 0.014885199922582871 0.03376783951704555 -0.007622927590931906 0.024809373185843392 -19.72215276768179 0.0035312117870074673 0.029612045115153363 0.0015249498121526449 0.03453195559246329 0.02065541642412905 -0.005078345370362479 -0.014902042494312456 0.005456346008588418 24.097913763071826 0.017124306795396504 0.004985507380142626 28.838972278139753 0.021126541317406093 0.0433392181970926 28.832558835139587 0.037208060700134084 0.02539156216271512 7.658594519967695 1.9023604368624223 13.973929015603968 -72.05212210268674 20.699180002729264 -9.035327353557031 -0.9322231992728242 -3.745679782070076 -49.97889757758118 -13.62158603457204 -0.8471478762075861 0.796076375753933 -0.5069028342177243 0.10847720283779586 -8.116116020116939 0.00016215250190551 -0.03333202778009783 44.5318307977278 -0.04475678083543662 -0.005323503789983721 44.52592079577481 12.462908306225145 -0.019650374305976666 -0.009706620784678845 0.016586894095393857 0.047949338872954085 -0.03307509344338231 0.015832536508560292 -0.030863454114053224 0.015585268421596484 11.065410559312053 0.001774927891959391 -0.0017143195155554585 -0.030582325348126646 0.03015871029456958 -0.015018342646076922 0.04401412688918335 -0.016331278198485833 -0.037754216568388184 4.784914759665774 0.011933011545385012 0.011856061655143956 -0.044132302540036514 -0.0332343469029755 -0.02262904570657253 0.01353529195368258 -0.03729335235065127 -0.008102573443079342 -5.639045780780047 -0.023459369340268862 -0.049583214363521186 -6.728385102618019 0.033675462256529086 0.020746047415930093 -6.744921623632508 0.04807396730355558 -0.02816447742467243 -0.02971712727962844 0.03363706253501848 -0.007503977177561007 8.03470597222057 3.4892027884357555 -19.174136282079107 -0.005447625827261709 10.355969116854954 0.004037053923436541 -5.611271160735794 -15.628611625936562 3.222861527899826 0.018449516646020146 0.03334328495832587 0.042807540453152215 -0.019692955666242292 4.729426696983667 0.048752309527191846 12.44720306532613 -8.282367364873409 6.884708787629004 0.02928749382652724 46.41223155875967 0.05102298077959328 -4.374617967179301 -14.754525416097648 -3.83155650592139 -0.005914905700289312 0.03554791058269012 -0.01835387314442933 -0.037664798449791245 -10.7107813503358 -0.0003847789950974132 
